Coordinates
version=1
nRows=12
nColumns=24
inDegrees=yes

Units are S.I. units (second, meters, Newtons, ...)
Angles are in degrees.

endheader
time	pelvis_tilt	pelvis_list	pelvis_rotation	pelvis_tx	pelvis_ty	pelvis_tz	hip_flexion_r	hip_adduction_r	hip_rotation_r	knee_angle_r	ankle_angle_r	subtalar_angle_r	mtp_angle_r	hip_flexion_l	hip_adduction_l	hip_rotation_l	knee_angle_l	ankle_angle_l	subtalar_angle_l	mtp_angle_l	lumbar_extension	lumbar_bending	lumbar_rotation
      6.21500000	     33.03879761	     -1.60779090	      0.40289870	      1.42058692	      0.65140438	     -0.17128061	    -48.19995563	      3.02074214	     -4.32830982	    -18.82422593	     23.20164482	     12.50024549	      0.00000000	     -9.46874852	     -0.95532283	     -6.07029812	     -4.95732916	      4.55663858	     14.24003353	      0.00000000	    -61.84620088	      1.82575150	      3.52881209
      6.22000000	     33.12614738	     -1.47850882	      0.18915757	      1.42703402	      0.65145220	     -0.17164037	    -47.97210103	      2.58311968	     -4.42465347	    -20.56475992	     22.29590693	     12.70017615	      0.00000000	     -9.58803405	     -0.67705824	     -5.24051577	     -5.80817283	      4.03803048	     13.84027281	      0.00000000	    -61.88052735	      1.56290167	      3.39870297
      6.22500000	     33.21343845	     -1.32876689	     -0.01742973	      1.43347622	      0.65156493	     -0.17200966	    -47.65775500	      2.12274533	     -4.57950787	    -22.43084945	     21.23611802	     12.89226436	      0.00000000	     -9.68550513	     -0.36440549	     -4.42791956	     -6.76962852	      3.52306539	     13.34921958	      0.00000000	    -61.91441100	      1.29404043	      3.23887592
      6.23000000	     33.30151157	     -1.15548896	     -0.20487628	      1.43990004	      0.65173458	     -0.17241068	    -47.25993773	      1.64405983	     -4.80159567	    -24.40913583	     20.00825883	     13.06623105	      0.00000000	     -9.76209730	     -0.01327061	     -3.64158207	     -7.82319127	      3.03341700	     12.76614370	      0.00000000	    -61.95051386	      1.03299587	      3.04746443
      6.23500000	     33.38835410	     -0.96321606	     -0.37777999	      1.44631815	      0.65195725	     -0.17284715	    -46.78195330	      1.14405907	     -5.08364154	    -26.48185003	     18.60691409	     13.19797076	      0.00000000	     -9.82685109	      0.37306817	     -2.88537158	     -8.94164439	      2.58956878	     12.10573855	      0.00000000	    -61.98460590	      0.77722582	      2.82752604
      6.24000000	     33.47525051	     -0.75133644	     -0.52991328	      1.45271530	      0.65223002	     -0.17331873	    -46.22503227	      0.62710603	     -5.41605110	    -28.64038698	     17.01499811	     13.26402329	      0.00000000	     -9.88710219	      0.79132676	     -2.17917680	    -10.09882734	      2.21342702	     11.38918852	      0.00000000	    -62.02177407	      0.53009451	      2.58183174
      6.24500000	     33.46706466	     -0.54018750	     -0.56620721	      1.45912540	      0.65245792	     -0.17393940	    -45.50573186	      0.16344953	     -5.89546756	    -30.84916920	     15.23728726	     13.32625677	      0.00000000	     -9.80005707	      1.20322277	     -1.38008364	    -11.36209196	      2.04812765	     10.65265848	      0.00000000	    -61.95000170	      0.39921017	      2.24818217
      6.25000000	     33.53099621	     -0.31112600	     -0.67485059	      1.46546499	      0.65280653	     -0.17447118	    -44.78077934	     -0.37131668	     -6.31864425	    -33.11821302	     13.31297377	     13.18035206	      0.00000000	     -9.84023117	      1.65060329	     -0.78565138	    -12.55617697	      1.87738671	      9.91734709	      0.00000000	    -61.96721407	      0.19057814	      1.97474341
      6.25500000	     33.64210922	     -0.06532966	     -0.84327302	      1.47182762	      0.65324109	     -0.17492492	    -44.05069751	     -0.96188105	     -6.67702811	    -35.39857181	     11.24847881	     12.84901857	      0.00000000	     -9.98510052	      2.13012007	     -0.26730331	    -13.68698474	      1.82683150	      9.19593163	      0.00000000	    -62.01684291	     -0.08781947	      1.71233896
      6.26000000	     33.70344592	      0.16423123	     -0.95583601	      1.47811777	      0.65367342	     -0.17547952	    -43.20179768	     -1.52446845	     -7.09546172	    -37.69479407	      9.07865683	     12.38218527	      0.00000000	    -10.07206085	      2.58981515	      0.22291237	    -14.82604014	      1.92628817	      8.47730741	      0.00000000	    -62.02608589	     -0.28796616	      1.44936106
      6.26500000	     33.69084706	      0.37339590	     -1.00202723	      1.48434157	      0.65409131	     -0.17605576	    -42.21659089	     -2.03444252	     -7.56152311	    -39.98772766	      6.84532004	     11.75417591	      0.00000000	    -10.08902234	      3.00483386	      0.65337469	    -15.94259242	      2.19359202	      7.80849852	      0.00000000	    -61.97763807	     -0.42370389	      1.18886573
      6.27000000	     33.82988815	      0.64470753	     -1.16932729	      1.49057823	      0.65468845	     -0.17651977	    -41.37766058	     -2.68604837	     -7.97809857	    -42.20100532	      4.60663251	     10.93084381	      0.00000000	    -10.37707230	      3.49880817	      0.89410517	    -16.87792890	      2.43573532	      7.25649519	      0.00000000	    -62.06156748	     -0.68156416	      0.89287742
